<svg width="44" height="44" viewBox="0 0 44 44" fill="none" xmlns="http://www.w3.org/2000/svg">
<rect width="44" height="44" rx="12" fill="#00B800"/>
<g clip-path="url(#clip0_1244_4919)">
<path d="M32.1818 8H11.8182C9.70946 8 8 9.70946 8 11.8182V32.1818C8 34.2905 9.70946 36 11.8182 36H32.1818C34.2905 36 36 34.2905 36 32.1818V11.8182C36 9.70946 34.2905 8 32.1818 8Z" fill="white"/>
<path d="M30.75 21.0455C30.7376 21.2233 30.7147 21.4001 30.6816 21.5753C30.5709 22.2457 30.3443 22.8917 30.0118 23.4843C29.8527 23.7675 29.0875 24.843 28.8536 25.1262C27.5602 26.6837 25.3934 28.4814 21.7725 30.2298C21.6961 30.2667 21.6113 30.2826 21.5267 30.2758C21.4421 30.269 21.3609 30.2398 21.2914 30.1912C21.2219 30.1425 21.1666 30.0763 21.1312 29.9992C21.0958 29.9221 21.0816 29.8369 21.09 29.7525L21.273 28.1091C21.2868 27.9834 21.2502 27.8573 21.1711 27.7586C21.0921 27.6598 20.9771 27.5965 20.8514 27.5825C19.6468 27.462 18.4734 27.1274 17.3864 26.5946C14.9045 25.368 13.25 23.1773 13.25 20.6812C13.25 16.8375 17.1668 13.7273 22 13.7273C24.4277 13.7273 26.6232 14.5227 28.2045 15.7843C29.6857 16.9696 30.6339 18.578 30.7357 20.363C30.7527 20.5901 30.7574 20.8179 30.75 21.0455Z" fill="#00B800"/>
<path d="M19.5886 22.2212C19.6309 22.2625 19.6644 22.3121 19.6871 22.3668C19.7098 22.4214 19.7212 22.4801 19.7206 22.5393C19.7208 22.5982 19.7094 22.6565 19.687 22.7109C19.6647 22.7653 19.6318 22.8148 19.5902 22.8565C19.5487 22.8982 19.4994 22.9312 19.445 22.9538C19.3907 22.9764 19.3324 22.988 19.2736 22.988H17.4838C17.3649 22.9876 17.2511 22.9402 17.167 22.8561C17.083 22.7721 17.0356 22.6582 17.0352 22.5393V19.1587C17.0348 19.0995 17.0463 19.0408 17.0689 18.9862C17.0916 18.9315 17.125 18.882 17.1672 18.8405C17.2298 18.7777 17.3097 18.7349 17.3967 18.7176C17.4837 18.7003 17.5739 18.7093 17.6558 18.7434C17.7376 18.7775 17.8075 18.8352 17.8565 18.9092C17.9055 18.9831 17.9314 19.07 17.9308 19.1587V22.0907H19.2736C19.3321 22.0903 19.3902 22.1016 19.4443 22.124C19.4984 22.1464 19.5475 22.1794 19.5886 22.2212ZM21.0458 19.0616V22.6364C21.0454 22.7291 21.0084 22.8179 20.9429 22.8834C20.8773 22.949 20.7885 22.986 20.6958 22.9864H20.4954C20.4026 22.9864 20.3135 22.9495 20.2479 22.8839C20.1823 22.8182 20.1454 22.7292 20.1454 22.6364V19.0616C20.1454 19.0156 20.1544 18.9701 20.172 18.9277C20.1896 18.8852 20.2154 18.8466 20.2479 18.8141C20.2804 18.7816 20.319 18.7558 20.3615 18.7383C20.4039 18.7207 20.4494 18.7116 20.4954 18.7116H20.6911C20.7374 18.7112 20.7833 18.7199 20.8262 18.7373C20.8692 18.7547 20.9082 18.7804 20.9412 18.8129C20.9741 18.8454 21.0004 18.8841 21.0183 18.9268C21.0363 18.9695 21.0456 19.0153 21.0458 19.0616ZM25.2013 19.1587V22.5202C25.2014 22.6412 25.1545 22.7574 25.0704 22.8444C24.9864 22.9313 24.8719 22.9823 24.7511 22.9864C24.6378 22.9846 24.5294 22.9403 24.4472 22.8623C24.4313 22.8496 23.8299 22.0668 23.3193 21.4082C22.9374 20.9166 22.6065 20.4871 22.6065 20.4871V22.5377C22.6068 22.6247 22.5818 22.7098 22.5345 22.7827C22.4871 22.8556 22.4196 22.9131 22.3401 22.9482C22.2606 22.9833 22.1726 22.9945 22.0868 22.9804C22.001 22.9663 21.9212 22.9274 21.8572 22.8687C21.811 22.8268 21.7741 22.7757 21.7489 22.7187C21.7237 22.6617 21.7107 22.6001 21.7108 22.5377V19.1777C21.7094 19.0596 21.7533 18.9454 21.8335 18.8587C21.9137 18.772 22.0241 18.7193 22.142 18.7116C22.2087 18.7105 22.2748 18.7242 22.3356 18.7517C22.3964 18.7792 22.4504 18.8199 22.4936 18.8707C22.5127 18.893 23.437 20.0957 23.9572 20.7798C24.164 21.0471 24.3072 21.2348 24.3072 21.2348V19.1666C24.308 19.0483 24.3554 18.9351 24.4391 18.8514C24.5227 18.7678 24.6359 18.7204 24.7543 18.7196C24.8715 18.7195 24.984 18.7655 25.0676 18.8477C25.1512 18.9298 25.1992 19.0415 25.2013 19.1587ZM26.7731 21.2952V22.0907H28.1143C28.1753 22.0871 28.2365 22.0959 28.294 22.1168C28.3515 22.1377 28.4041 22.1701 28.4486 22.212C28.4931 22.2539 28.5286 22.3045 28.5528 22.3607C28.5771 22.4169 28.5896 22.4774 28.5896 22.5385C28.5896 22.5997 28.5771 22.6602 28.5528 22.7164C28.5286 22.7725 28.4931 22.8231 28.4486 22.8651C28.4041 22.907 28.3515 22.9394 28.294 22.9603C28.2365 22.9811 28.1753 22.99 28.1143 22.9864H26.3197C26.201 22.986 26.0873 22.9385 26.0035 22.8544C25.9197 22.7703 25.8727 22.6565 25.8727 22.5377V19.1587C25.8731 19.0402 25.9203 18.9268 26.0041 18.843C26.0878 18.7593 26.2013 18.712 26.3197 18.7116H28.1095C28.1705 18.708 28.2317 18.7169 28.2892 18.7377C28.3467 18.7586 28.3993 18.791 28.4438 18.8329C28.4884 18.8749 28.5238 18.9255 28.5481 18.9816C28.5723 19.0378 28.5848 19.0983 28.5848 19.1594C28.5848 19.2206 28.5723 19.2811 28.5481 19.3373C28.5238 19.3934 28.4884 19.444 28.4438 19.486C28.3993 19.5279 28.3467 19.5603 28.2892 19.5812C28.2317 19.602 28.1705 19.6109 28.1095 19.6073H26.7731V20.4027H28.1143C28.2328 20.4027 28.3465 20.4498 28.4304 20.5337C28.5142 20.6175 28.5613 20.7312 28.5613 20.8498C28.5613 20.9684 28.5142 21.0821 28.4304 21.1659C28.3465 21.2497 28.2328 21.2968 28.1143 21.2968L26.7731 21.2952Z" fill="white"/>
</g>
<defs>
<clipPath id="clip0_1244_4919">
<rect width="28" height="28" fill="white" transform="translate(8 8)"/>
</clipPath>
</defs>
</svg>
