<svg width="107" height="92" viewBox="0 0 107 92" fill="none" xmlns="http://www.w3.org/2000/svg">
<rect width="107" height="92" rx="12" fill="#00B800"/>
<g clip-path="url(#clip0_1192_12334)">
<path d="M69.5 12H37.5C34.1863 12 31.5 14.6863 31.5 18V50C31.5 53.3137 34.1863 56 37.5 56H69.5C72.8137 56 75.5 53.3137 75.5 50V18C75.5 14.6863 72.8137 12 69.5 12Z" fill="white"/>
<path d="M67.25 32.5C67.2304 32.7794 67.1946 33.0573 67.1425 33.3325C66.9686 34.386 66.6124 35.4012 66.09 36.3325C65.84 36.7775 64.6375 38.4675 64.27 38.9125C62.2375 41.36 58.8325 44.185 53.1425 46.9325C53.0225 46.9905 52.8891 47.0154 52.7562 47.0048C52.6234 46.9941 52.4957 46.9482 52.3865 46.8718C52.2772 46.7954 52.1903 46.6913 52.1347 46.5701C52.0791 46.4489 52.0567 46.3152 52.07 46.1825L52.3575 43.6C52.3793 43.4024 52.3217 43.2043 52.1975 43.0492C52.0733 42.894 51.8925 42.7945 51.695 42.7725C49.8021 42.5831 47.9582 42.0574 46.25 41.22C42.35 39.2925 39.75 35.85 39.75 31.9275C39.75 25.8875 45.905 21 53.5 21C57.315 21 60.765 22.25 63.25 24.2325C65.5775 26.095 67.0675 28.6225 67.2275 31.4275C67.2542 31.7843 67.2617 32.1424 67.25 32.5Z" fill="#00B800"/>
<path d="M49.7098 34.3475C49.7763 34.4126 49.829 34.4904 49.8646 34.5763C49.9003 34.6622 49.9182 34.7545 49.9173 34.8475C49.9176 34.94 49.8997 35.0316 49.8645 35.1171C49.8294 35.2026 49.7777 35.2804 49.7124 35.3459C49.6471 35.4114 49.5696 35.4633 49.4842 35.4988C49.3988 35.5343 49.3072 35.5525 49.2148 35.5525H46.4023C46.2155 35.5518 46.0366 35.4774 45.9045 35.3453C45.7724 35.2132 45.6979 35.0343 45.6973 34.8475V29.535C45.6967 29.442 45.7147 29.3499 45.7503 29.264C45.786 29.1781 45.8385 29.1002 45.9048 29.035C46.0032 28.9363 46.1287 28.8691 46.2654 28.8419C46.4021 28.8148 46.5438 28.8289 46.6725 28.8825C46.8011 28.9361 46.9109 29.0268 46.9879 29.143C47.0649 29.2592 47.1056 29.3956 47.1048 29.535V34.1425H49.2148C49.3068 34.1418 49.398 34.1596 49.4831 34.1948C49.5681 34.23 49.6452 34.2819 49.7098 34.3475ZM51.9998 29.3825V35C51.9991 35.1457 51.941 35.2852 51.838 35.3882C51.735 35.4912 51.5954 35.5493 51.4498 35.55H51.1348C50.9889 35.55 50.849 35.4921 50.7459 35.3889C50.6427 35.2858 50.5848 35.1459 50.5848 35V29.3825C50.5848 29.3103 50.599 29.2388 50.6266 29.172C50.6543 29.1053 50.6948 29.0447 50.7459 28.9936C50.7969 28.9425 50.8576 28.902 50.9243 28.8744C50.991 28.8467 51.0626 28.8325 51.1348 28.8325H51.4423C51.515 28.8318 51.5872 28.8456 51.6547 28.8729C51.7221 28.9002 51.7835 28.9406 51.8353 28.9917C51.8871 29.0428 51.9283 29.1036 51.9565 29.1707C51.9848 29.2377 51.9995 29.3097 51.9998 29.3825ZM58.5298 29.535V34.8175C58.5299 35.0075 58.4562 35.1901 58.3242 35.3268C58.1921 35.4635 58.0122 35.5435 57.8223 35.55C57.6443 35.5472 57.4739 35.4776 57.3448 35.355C57.3198 35.335 56.3748 34.105 55.5723 33.07C54.9723 32.2975 54.4523 31.6225 54.4523 31.6225V34.845C54.4528 34.9816 54.4134 35.1153 54.339 35.2299C54.2647 35.3445 54.1585 35.4349 54.0336 35.4901C53.9086 35.5452 53.7703 35.5628 53.6355 35.5406C53.5008 35.5184 53.3754 35.4574 53.2748 35.365C53.2022 35.2992 53.1442 35.219 53.1046 35.1294C53.065 35.0398 53.0446 34.9429 53.0448 34.845V29.565C53.0425 29.3794 53.1114 29.1999 53.2375 29.0637C53.3635 28.9274 53.537 28.8447 53.7223 28.8325C53.8271 28.8308 53.931 28.8523 54.0266 28.8955C54.1221 28.9388 54.2069 29.0026 54.2748 29.0825C54.3048 29.1175 55.7573 31.0075 56.5748 32.0825C56.8998 32.5025 57.1248 32.7975 57.1248 32.7975V29.5475C57.1261 29.3616 57.2005 29.1837 57.332 29.0522C57.4634 28.9207 57.6414 28.8463 57.8273 28.845C58.0114 28.845 58.1883 28.9173 58.3197 29.0463C58.451 29.1754 58.5265 29.3509 58.5298 29.535ZM60.9998 32.8925V34.1425H63.1073C63.2032 34.1368 63.2993 34.1507 63.3897 34.1835C63.48 34.2163 63.5627 34.2672 63.6327 34.3331C63.7027 34.399 63.7584 34.4786 63.7965 34.5668C63.8346 34.655 63.8542 34.7501 63.8542 34.8463C63.8542 34.9424 63.8346 35.0375 63.7965 35.1257C63.7584 35.214 63.7027 35.2935 63.6327 35.3594C63.5627 35.4253 63.48 35.4762 63.3897 35.509C63.2993 35.5418 63.2032 35.5557 63.1073 35.55H60.2873C60.1007 35.5493 59.9221 35.4748 59.7904 35.3426C59.6587 35.2105 59.5848 35.0315 59.5848 34.845V29.535C59.5854 29.3489 59.6597 29.1706 59.7913 29.039C59.9229 28.9074 60.1012 28.8332 60.2873 28.8325H63.0998C63.1957 28.8268 63.2918 28.8407 63.3822 28.8735C63.4725 28.9063 63.5552 28.9572 63.6252 29.0231C63.6951 29.089 63.7509 29.1686 63.789 29.2568C63.8271 29.345 63.8467 29.4401 63.8467 29.5363C63.8467 29.6324 63.8271 29.7275 63.789 29.8157C63.7509 29.904 63.6951 29.9835 63.6252 30.0494C63.5552 30.1153 63.4725 30.1662 63.3822 30.199C63.2918 30.2318 63.1957 30.2457 63.0998 30.24H60.9998V31.49H63.1073C63.2936 31.49 63.4723 31.564 63.604 31.6958C63.7358 31.8275 63.8098 32.0062 63.8098 32.1925C63.8098 32.3788 63.7358 32.5575 63.604 32.6892C63.4723 32.821 63.2936 32.895 63.1073 32.895L60.9998 32.8925Z" fill="white"/>
</g>
<path d="M30.628 64.732H31.744V71.956H35.116V73H30.628V64.732ZM37.4334 67.396V73H36.3534V67.396H37.4334ZM36.1374 65.332C36.1374 64.912 36.4734 64.624 36.8934 64.624C37.3134 64.624 37.6494 64.912 37.6494 65.332C37.6494 65.752 37.3134 66.04 36.8934 66.04C36.4734 66.04 36.1374 65.752 36.1374 65.332ZM40.3517 69.976V73H39.2597V67.396H40.3517V68.236C40.6757 67.564 41.4917 67.276 42.1037 67.276C43.5077 67.276 44.2637 68.176 44.2637 69.76V73H43.1717V69.832C43.1717 68.884 42.7037 68.344 41.9357 68.344C41.1437 68.344 40.3517 68.788 40.3517 69.976ZM46.7414 69.76H50.2214C50.0894 68.812 49.4294 68.26 48.5174 68.26C47.5934 68.26 46.8734 68.812 46.7414 69.76ZM51.3014 70.18C51.3014 70.312 51.3014 70.48 51.2894 70.612H46.7414C46.8734 71.56 47.5934 72.136 48.5534 72.136C49.2254 72.136 49.8374 71.836 50.1614 71.272C50.4494 71.404 50.7974 71.5 51.0974 71.632C50.6174 72.628 49.6094 73.12 48.5174 73.12C46.9214 73.12 45.6494 71.956 45.6494 70.18C45.6494 68.404 46.9214 67.276 48.5174 67.276C50.1134 67.276 51.3014 68.404 51.3014 70.18ZM57.4025 69.892H60.1385L58.7705 66.22L57.4025 69.892ZM60.5225 70.9H57.0185L56.2145 73H55.0265L58.1705 64.732H59.3705L62.5025 73H61.3265L60.5225 70.9ZM64.6329 67.396V68.272C65.0169 67.636 65.7969 67.276 66.5889 67.276C68.1249 67.276 69.3969 68.44 69.3969 70.216C69.3969 71.992 68.1249 73.12 66.5889 73.12C65.7969 73.12 65.0169 72.796 64.6329 72.16V75.724H63.5409V67.396H64.6329ZM64.6449 70.228C64.6449 71.428 65.5809 72.052 66.4809 72.052C67.4889 72.052 68.2929 71.344 68.2929 70.228C68.2929 69.112 67.4889 68.344 66.4809 68.344C65.4969 68.344 64.6449 69.04 64.6449 70.228ZM71.9454 67.396V68.272C72.3294 67.636 73.1094 67.276 73.9014 67.276C75.4374 67.276 76.7094 68.44 76.7094 70.216C76.7094 71.992 75.4374 73.12 73.9014 73.12C73.1094 73.12 72.3294 72.796 71.9454 72.16V75.724H70.8534V67.396H71.9454ZM71.9574 70.228C71.9574 71.428 72.8934 72.052 73.7934 72.052C74.8014 72.052 75.6054 71.344 75.6054 70.228C75.6054 69.112 74.8014 68.344 73.7934 68.344C72.8094 68.344 71.9574 69.04 71.9574 70.228Z" fill="white"/>
<defs>
<clipPath id="clip0_1192_12334">
<rect width="44" height="44" fill="white" transform="translate(31.5 12)"/>
</clipPath>
</defs>
</svg>
