<svg width="60" height="60" viewBox="0 0 60 60" fill="none" xmlns="http://www.w3.org/2000/svg">
<path d="M15.8832 10.7882H16.0832V10.5882V7.05193C16.0832 3.26395 19.1491 0.2 22.9467 0.2H47.6432C51.4305 0.2 54.5067 3.27412 54.5067 7.05312V42.3585C54.5067 46.1471 51.4408 49.2117 47.6432 49.2117H44.1184H43.9184V49.4117V52.9467C43.9184 56.7353 40.8526 59.7999 37.0549 59.7999H12.3584C8.5699 59.7999 5.49492 56.729 5.49492 52.948V17.6402C5.49492 13.8522 8.56083 10.7882 12.3584 10.7882H15.8832ZM43.9185 45.8824V46.0824H44.1185H47.6433C49.7124 46.0824 51.3774 44.4191 51.3774 42.3586V7.05312C51.3774 5.00234 49.7023 3.32938 47.6433 3.32938H22.9467C20.8775 3.32938 19.2127 4.9922 19.2127 7.05193V10.5882V10.7882H19.4127H37.055C40.8424 10.7882 43.9185 13.8624 43.9185 17.6414V45.8824ZM40.789 52.9468V17.6414C40.789 15.5906 39.1139 13.9176 37.0549 13.9176H12.3584C10.2893 13.9176 8.6243 15.5803 8.6243 17.6402V52.9481C8.6243 55.0004 10.2979 56.6706 12.3584 56.6706H37.0549C39.1242 56.6706 40.789 55.0073 40.789 52.9468ZM15.8832 43.9177C15.019 43.9177 14.3185 43.2171 14.3185 42.353C14.3185 41.4889 15.019 40.7883 15.8832 40.7883H33.5302C34.3944 40.7883 35.0949 41.4889 35.0949 42.353C35.0949 43.2171 34.3944 43.9177 33.5302 43.9177H15.8832ZM20.295 50.9764C19.4308 50.9764 18.7303 50.2759 18.7303 49.4118C18.7303 48.5476 19.4308 47.8471 20.295 47.8471H29.1186C29.9827 47.8471 30.6832 48.5476 30.6832 49.4118C30.6832 50.2759 29.9827 50.9764 29.1186 50.9764H20.295Z" fill="#44A9B2" stroke="#F9F9F9" stroke-width="0.4"/>
<path d="M30.895 25.0675C30.895 25.3825 30.8725 25.69 30.835 25.9825C30.49 25.8325 30.115 25.75 29.7175 25.75C28.8025 25.75 27.9925 26.1925 27.49 26.8675C26.98 26.1925 26.17 25.75 25.255 25.75C23.7175 25.75 22.4725 27.0025 22.4725 28.555C22.4725 30.565 23.5375 32.1025 24.7225 33.145C24.685 33.1675 24.6475 33.175 24.61 33.19C24.385 33.2725 24.01 33.2725 23.785 33.19C21.8425 32.5225 17.5 29.7625 17.5 25.0675C17.5 22.9975 19.165 21.325 21.22 21.325C22.4425 21.325 23.5225 21.91 24.1975 22.8175C24.88 21.91 25.96 21.325 27.175 21.325C29.23 21.325 30.895 22.9975 30.895 25.0675Z" stroke="#44A9B2" stroke-width="1.8" stroke-linecap="round" stroke-linejoin="round"/>
<path d="M32.5002 28.555C32.5002 32.065 29.2527 34.135 27.7977 34.63C27.6252 34.69 27.3476 34.69 27.1751 34.63C26.5526 34.42 25.6002 33.9175 24.7227 33.145C23.5377 32.1025 22.4727 30.565 22.4727 28.555C22.4727 27.0025 23.7176 25.75 25.2551 25.75C26.1701 25.75 26.9802 26.1925 27.4902 26.8675C27.9927 26.1925 28.8027 25.75 29.7177 25.75C30.1152 25.75 30.4902 25.8325 30.8352 25.9825C31.8177 26.4175 32.5002 27.4 32.5002 28.555Z" stroke="#44A9B2" stroke-width="1.8" stroke-linecap="round" stroke-linejoin="round"/>
</svg>
