<svg width="50" height="60" viewBox="0 0 50 60" fill="none" xmlns="http://www.w3.org/2000/svg">
<path d="M10.8832 10.7882H11.0832V10.5882V7.05193C11.0832 3.26395 14.1491 0.2 17.9467 0.2H42.6432C46.4305 0.2 49.5067 3.27412 49.5067 7.05312V42.3585C49.5067 46.1471 46.4408 49.2117 42.6432 49.2117H39.1184H38.9184V49.4117V52.9467C38.9184 56.7353 35.8526 59.7999 32.0549 59.7999H7.35844C3.5699 59.7999 0.494922 56.729 0.494922 52.948V17.6402C0.494922 13.8522 3.56083 10.7882 7.35844 10.7882H10.8832ZM38.9185 45.8824V46.0824H39.1185H42.6433C44.7124 46.0824 46.3774 44.4191 46.3774 42.3586V7.05312C46.3774 5.00234 44.7023 3.32938 42.6433 3.32938H17.9467C15.8775 3.32938 14.2127 4.9922 14.2127 7.05193V10.5882V10.7882H14.4127H32.055C35.8424 10.7882 38.9185 13.8624 38.9185 17.6414V45.8824ZM35.789 52.9468V17.6414C35.789 15.5906 34.1139 13.9176 32.0549 13.9176H7.35844C5.28926 13.9176 3.6243 15.5803 3.6243 17.6402V52.9481C3.6243 55.0004 5.29791 56.6706 7.35844 56.6706H32.0549C34.1242 56.6706 35.789 55.0073 35.789 52.9468ZM10.8832 43.9177C10.019 43.9177 9.31848 43.2171 9.31848 42.353C9.31848 41.4889 10.019 40.7883 10.8832 40.7883H28.5302C29.3944 40.7883 30.0949 41.4889 30.0949 42.353C30.0949 43.2171 29.3944 43.9177 28.5302 43.9177H10.8832ZM15.295 50.9764C14.4308 50.9764 13.7303 50.2759 13.7303 49.4118C13.7303 48.5476 14.4308 47.8471 15.295 47.8471H24.1186C24.9827 47.8471 25.6832 48.5476 25.6832 49.4118C25.6832 50.2759 24.9827 50.9764 24.1186 50.9764H15.295Z" fill="#44A9B2" stroke="#F9F9F9" stroke-width="0.4"/>
<path d="M18.5381 19.8975L14.0231 22.845C12.5756 23.79 12.5756 25.905 14.0231 26.85L18.5381 29.7975C19.3481 30.33 20.6831 30.33 21.4931 29.7975L25.9856 26.85C27.4256 25.905 27.4256 23.7975 25.9856 22.8525L21.4931 19.905C20.6831 19.365 19.3481 19.365 18.5381 19.8975Z" stroke="#44A9B2" stroke-width="1.8" stroke-linecap="round" stroke-linejoin="round"/>
<path d="M15.2223 27.81L15.2148 31.3275C15.2148 32.28 15.9498 33.3 16.8498 33.6L19.2423 34.395C19.6548 34.53 20.3373 34.53 20.7573 34.395L23.1498 33.6C24.0498 33.3 24.7848 32.28 24.7848 31.3275V27.8475" stroke="#44A9B2" stroke-width="1.8" stroke-linecap="round" stroke-linejoin="round"/>
<path d="M27.0508 29.25V24.75" stroke="#44A9B2" stroke-width="1.8" stroke-linecap="round" stroke-linejoin="round"/>
</svg>
