<svg width="88" height="35" viewBox="0 0 88 35" fill="none" xmlns="http://www.w3.org/2000/svg">
<path d="M3.86338 11.4296V19.3775H0V5.62978H3.68201V8.05533H3.84525C4.15359 7.25576 4.67052 6.62327 5.39604 6.15785C6.12156 5.68647 7.00125 5.45077 8.03511 5.45077C9.00247 5.45077 9.84589 5.65962 10.5654 6.0773C11.2848 6.49498 11.8441 7.09167 12.2431 7.86737C12.6422 8.6371 12.8417 9.55601 12.8417 10.6241V19.3775H8.97829V11.3043C8.98433 10.463 8.76668 9.80662 8.32532 9.33523C7.88397 8.85788 7.27634 8.6192 6.50246 8.6192C5.9825 8.6192 5.52301 8.72959 5.12397 8.95037C4.73098 9.17114 4.42264 9.49336 4.19894 9.91701C3.98128 10.3347 3.86943 10.8389 3.86338 11.4296Z" fill="#121212"/>
<path d="M20.8803 19.6371C19.9916 19.6371 19.1995 19.4849 18.5043 19.1806C17.809 18.8704 17.2588 18.4139 16.8537 17.8112C16.4547 17.2026 16.2551 16.4448 16.2551 15.5378C16.2551 14.7741 16.3972 14.1326 16.6814 13.6135C16.9655 13.0944 17.3525 12.6767 17.8422 12.3605C18.3319 12.0442 18.8882 11.8055 19.5109 11.6444C20.1397 11.4833 20.7987 11.3699 21.4879 11.3043C22.2981 11.2208 22.9511 11.1432 23.4468 11.0716C23.9426 10.994 24.3024 10.8807 24.5261 10.7315C24.7498 10.5823 24.8616 10.3615 24.8616 10.0692V10.0155C24.8616 9.4486 24.6802 9.01004 24.3175 8.69976C23.9608 8.38948 23.4529 8.23434 22.7939 8.23434C22.0986 8.23434 21.5454 8.38649 21.1343 8.69081C20.7231 8.98915 20.4511 9.36507 20.318 9.81855L16.7449 9.53214C16.9263 8.69677 17.283 7.97478 17.815 7.36615C18.3471 6.75156 19.0333 6.28017 19.8737 5.95199C20.7201 5.61785 21.6996 5.45077 22.812 5.45077C23.5859 5.45077 24.3265 5.54028 25.0339 5.71928C25.7473 5.89829 26.3791 6.17575 26.9293 6.55167C27.4856 6.92758 27.9239 7.4109 28.2443 8.00163C28.5648 8.58638 28.725 9.2875 28.725 10.105V19.3775H25.0611V17.4711H24.9523C24.7286 17.9007 24.4293 18.2796 24.0545 18.6078C23.6796 18.93 23.2292 19.1836 22.7032 19.3686C22.1772 19.5476 21.5696 19.6371 20.8803 19.6371ZM21.9867 17.0057C22.5551 17.0057 23.0569 16.8953 23.4922 16.6745C23.9275 16.4478 24.2691 16.1435 24.517 15.7616C24.7649 15.3797 24.8888 14.9471 24.8888 14.4638V13.0049C24.7679 13.0825 24.6016 13.1541 24.39 13.2197C24.1845 13.2794 23.9517 13.336 23.6917 13.3897C23.4317 13.4375 23.1718 13.4822 22.9118 13.524C22.6518 13.5598 22.416 13.5926 22.2044 13.6225C21.7509 13.6881 21.3549 13.7925 21.0164 13.9357C20.6778 14.0789 20.4148 14.2729 20.2274 14.5175C20.0399 14.7562 19.9462 15.0545 19.9462 15.4125C19.9462 15.9317 20.1367 16.3285 20.5176 16.6029C20.9045 16.8714 21.3942 17.0057 21.9867 17.0057Z" fill="#121212"/>
<path d="M40.1532 5.62978V8.4939H31.7644V5.62978H40.1532ZM33.6689 2.33605H37.5322V15.153C37.5322 15.505 37.5867 15.7795 37.6955 15.9764C37.8043 16.1673 37.9555 16.3016 38.1489 16.3792C38.3484 16.4567 38.5782 16.4955 38.8382 16.4955C39.0196 16.4955 39.2009 16.4806 39.3823 16.4508C39.5637 16.415 39.7027 16.3881 39.7995 16.3702L40.4071 19.2075C40.2136 19.2672 39.9416 19.3358 39.5909 19.4133C39.2402 19.4969 38.814 19.5476 38.3122 19.5655C37.3811 19.6013 36.5649 19.479 35.8635 19.1985C35.1683 18.9181 34.6271 18.4825 34.2402 17.8918C33.8533 17.3011 33.6628 16.5552 33.6689 15.6542V2.33605Z" fill="#121212"/>
<path d="M43.6913 19.3775V5.62978H47.5547V19.3775H43.6913ZM45.6321 3.85761C45.0577 3.85761 44.565 3.66965 44.1539 3.29373C43.7488 2.91185 43.5462 2.45538 43.5462 1.92433C43.5462 1.39924 43.7488 0.948739 44.1539 0.572824C44.565 0.190941 45.0577 0 45.6321 0C46.2065 0 46.6962 0.190941 47.1013 0.572824C47.5124 0.948739 47.718 1.39924 47.718 1.92433C47.718 2.45538 47.5124 2.91185 47.1013 3.29373C46.6962 3.66965 46.2065 3.85761 45.6321 3.85761Z" fill="#121212"/>
<path d="M64.6578 5.62978L59.7878 19.3775H55.4347L50.5646 5.62978H54.6457L57.5387 15.4662H57.6838L60.5677 5.62978H64.6578Z" fill="#121212"/>
<path d="M73.5558 19.6461C72.1229 19.6461 70.8895 19.3596 69.8556 18.7868C68.8278 18.208 68.0358 17.3906 67.4795 16.3344C66.9233 15.2723 66.6452 14.0163 66.6452 12.5663C66.6452 11.1522 66.9233 9.91104 67.4795 8.84296C68.0358 7.77489 68.8187 6.9425 69.8284 6.34581C70.8441 5.74912 72.0352 5.45077 73.4016 5.45077C74.3206 5.45077 75.1761 5.59696 75.9681 5.88934C76.7662 6.17575 77.4615 6.60835 78.054 7.18714C78.6525 7.76593 79.1181 8.4939 79.4506 9.37103C79.7831 10.2422 79.9494 11.2625 79.9494 12.4321V13.4793H68.1869V11.1164H76.3127C76.3127 10.5674 76.1918 10.0811 75.95 9.65745C75.7081 9.23379 75.3726 8.90263 74.9433 8.66395C74.5201 8.41931 74.0274 8.29699 73.4651 8.29699C72.8786 8.29699 72.3587 8.43125 71.9052 8.69976C71.4578 8.9623 71.1071 9.31733 70.8532 9.76485C70.5993 10.2064 70.4693 10.6987 70.4632 11.2417V13.4882C70.4632 14.1684 70.5902 14.7562 70.8441 15.2514C71.1041 15.7467 71.4699 16.1286 71.9415 16.3971C72.4131 16.6656 72.9723 16.7998 73.6192 16.7998C74.0485 16.7998 74.4415 16.7402 74.7982 16.6208C75.1549 16.5015 75.4603 16.3225 75.7142 16.0838C75.9681 15.8451 76.1616 15.5528 76.2946 15.2067L79.8678 15.4394C79.6864 16.2867 79.3146 17.0266 78.7523 17.6591C78.1961 18.2856 77.4766 18.7749 76.5939 19.1269C75.7172 19.473 74.7045 19.6461 73.5558 19.6461Z" fill="#121212"/>
<path d="M85.7503 19.6103C85.1517 19.6103 84.6378 19.4014 84.2085 18.9837C83.7853 18.5601 83.5737 18.0529 83.5737 17.4622C83.5737 16.8774 83.7853 16.3762 84.2085 15.9585C84.6378 15.5408 85.1517 15.332 85.7503 15.332C86.3307 15.332 86.8385 15.5408 87.2739 15.9585C87.7092 16.3762 87.9268 16.8774 87.9268 17.4622C87.9268 17.856 87.824 18.217 87.6185 18.5452C87.419 18.8674 87.156 19.1269 86.8295 19.3238C86.503 19.5148 86.1433 19.6103 85.7503 19.6103Z" fill="#121212"/>
<path d="M22.5679 33.236C22.247 33.236 21.9567 33.1774 21.6973 33.0602C21.4379 32.9409 21.2323 32.7684 21.0806 32.5427C20.9311 32.3171 20.8564 32.0404 20.8564 31.7128C20.8564 31.4307 20.9113 31.1985 21.0213 31.0163C21.1312 30.834 21.2796 30.6897 21.4665 30.5834C21.6533 30.4771 21.8622 30.3968 22.0931 30.3426C22.3239 30.2883 22.5591 30.2471 22.7988 30.2189C23.1022 30.1842 23.3484 30.156 23.5375 30.1343C23.7266 30.1104 23.864 30.0724 23.9497 30.0203C24.0355 29.9683 24.0783 29.8836 24.0783 29.7665V29.7437C24.0783 29.4595 23.997 29.2392 23.8343 29.083C23.6738 28.9268 23.4342 28.8487 23.1154 28.8487C22.7834 28.8487 22.5218 28.9213 22.3305 29.0667C22.1414 29.2099 22.0106 29.3694 21.9381 29.5452L21.0114 29.3369C21.1213 29.0331 21.2818 28.7879 21.4929 28.6013C21.7061 28.4125 21.9512 28.2758 22.2283 28.1912C22.5053 28.1044 22.7966 28.061 23.1022 28.061C23.3044 28.061 23.5188 28.0849 23.7453 28.1326C23.9739 28.1782 24.1872 28.2628 24.385 28.3865C24.5851 28.5102 24.7489 28.687 24.8764 28.917C25.0039 29.1448 25.0677 29.441 25.0677 29.8055V33.1253H24.1047V32.4418H24.0651C24.0014 32.5677 23.9057 32.6913 23.7782 32.8129C23.6507 32.9344 23.4869 33.0353 23.2869 33.1155C23.0868 33.1958 22.8472 33.236 22.5679 33.236ZM22.7823 32.4548C23.0549 32.4548 23.288 32.4017 23.4814 32.2954C23.6771 32.189 23.8255 32.0502 23.9266 31.8788C24.03 31.7052 24.0816 31.5197 24.0816 31.3222V30.6778C24.0465 30.7125 23.9783 30.745 23.8772 30.7754C23.7782 30.8036 23.665 30.8286 23.5375 30.8503C23.41 30.8698 23.2858 30.8883 23.1648 30.9056C23.0439 30.9208 22.9428 30.9338 22.8614 30.9447C22.6702 30.9685 22.4954 31.0087 22.3371 31.0651C22.181 31.1215 22.0557 31.2029 21.9611 31.3092C21.8688 31.4133 21.8226 31.5522 21.8226 31.7258C21.8226 31.9666 21.9128 32.1489 22.0931 32.2726C22.2733 32.3941 22.5031 32.4548 22.7823 32.4548Z" fill="#121212"/>
<path d="M30.3625 29.3466L29.4688 29.5028C29.4315 29.39 29.3721 29.2826 29.2908 29.1806C29.2116 29.0787 29.1039 28.9951 28.9676 28.93C28.8313 28.8649 28.6609 28.8324 28.4564 28.8324C28.1772 28.8324 27.9441 28.8942 27.7573 29.0179C27.5704 29.1394 27.477 29.2967 27.477 29.4898C27.477 29.6569 27.5396 29.7914 27.6649 29.8934C27.7903 29.9954 27.9925 30.0789 28.2717 30.144L29.0764 30.3263C29.5425 30.4326 29.8899 30.5964 30.1185 30.8177C30.3472 31.0391 30.4615 31.3266 30.4615 31.6802C30.4615 31.9797 30.3735 32.2465 30.1977 32.4809C30.024 32.713 29.781 32.8953 29.4688 33.0277C29.1588 33.16 28.7994 33.2262 28.3905 33.2262C27.8232 33.2262 27.3604 33.1069 27.0021 32.8682C26.6437 32.6273 26.4239 32.2856 26.3425 31.843L27.2956 31.6998C27.3549 31.9449 27.477 32.1305 27.6616 32.2563C27.8463 32.38 28.0871 32.4418 28.3839 32.4418C28.707 32.4418 28.9654 32.3756 29.1588 32.2433C29.3523 32.1088 29.4491 31.9449 29.4491 31.7518C29.4491 31.5956 29.3897 31.4643 29.271 31.358C29.1544 31.2517 28.9753 31.1714 28.7334 31.1172L27.876 30.9317C27.4033 30.8253 27.0537 30.6561 26.8273 30.4239C26.603 30.1918 26.4909 29.8977 26.4909 29.5419C26.4909 29.2468 26.5745 28.9886 26.7415 28.7673C26.9086 28.546 27.1395 28.3735 27.4341 28.2498C27.7287 28.1239 28.0662 28.061 28.4465 28.061C28.994 28.061 29.4249 28.1782 29.7393 28.4125C30.0536 28.6447 30.2614 28.9561 30.3625 29.3466Z" fill="#121212"/>
<path d="M34.9981 35C34.8508 35 34.7167 34.9881 34.5957 34.9642C34.4748 34.9425 34.3847 34.9186 34.3253 34.8926L34.5628 34.0952C34.743 34.1429 34.9035 34.1635 35.0442 34.157C35.185 34.1505 35.3092 34.0985 35.4169 34.0008C35.5268 33.9032 35.6236 33.7437 35.7071 33.5224L35.8291 33.1904L33.9758 28.1261H35.0311L36.3139 32.0057H36.3667L37.6495 28.1261H38.7081L36.6206 33.7925C36.5239 34.0529 36.4007 34.2731 36.2512 34.4532C36.1017 34.6355 35.9237 34.7722 35.717 34.8633C35.5103 34.9544 35.2707 35 34.9981 35Z" fill="#121212"/>
<path d="M41.7819 33.2262C41.307 33.2262 40.8926 33.1188 40.5386 32.904C40.1847 32.6892 39.9099 32.3887 39.7142 32.0024C39.5185 31.6162 39.4207 31.1649 39.4207 30.6485C39.4207 30.1299 39.5185 29.6764 39.7142 29.288C39.9099 28.8996 40.1847 28.598 40.5386 28.3832C40.8926 28.1684 41.307 28.061 41.7819 28.061C42.2568 28.061 42.6712 28.1684 43.0252 28.3832C43.3791 28.598 43.654 28.8996 43.8496 29.288C44.0453 29.6764 44.1431 30.1299 44.1431 30.6485C44.1431 31.1649 44.0453 31.6162 43.8496 32.0024C43.654 32.3887 43.3791 32.6892 43.0252 32.904C42.6712 33.1188 42.2568 33.2262 41.7819 33.2262ZM41.7852 32.4093C42.093 32.4093 42.348 32.329 42.5503 32.1684C42.7526 32.0079 42.9021 31.7941 42.9988 31.5273C43.0977 31.2604 43.1472 30.9664 43.1472 30.6452C43.1472 30.3263 43.0977 30.0334 42.9988 29.7665C42.9021 29.4974 42.7526 29.2815 42.5503 29.1188C42.348 28.9561 42.093 28.8747 41.7852 28.8747C41.4752 28.8747 41.218 28.9561 41.0135 29.1188C40.8112 29.2815 40.6607 29.4974 40.5617 29.7665C40.465 30.0334 40.4166 30.3263 40.4166 30.6452C40.4166 30.9664 40.465 31.2604 40.5617 31.5273C40.6607 31.7941 40.8112 32.0079 41.0135 32.1684C41.218 32.329 41.4752 32.4093 41.7852 32.4093Z" fill="#121212"/>
<path d="M48.6383 31.0521V28.1261H49.6276V33.1253H48.6581V32.2596H48.6053C48.4888 32.5264 48.3019 32.7488 48.0447 32.9268C47.7896 33.1025 47.472 33.1904 47.0916 33.1904C46.7662 33.1904 46.4782 33.1199 46.2276 32.9788C45.9791 32.8356 45.7835 32.6241 45.6406 32.3442C45.4999 32.0643 45.4295 31.7182 45.4295 31.3059V28.1261H46.4156V31.1888C46.4156 31.5294 46.5112 31.8007 46.7025 32.0024C46.8937 32.2042 47.1422 32.3051 47.4478 32.3051C47.6325 32.3051 47.816 32.2596 47.9985 32.1684C48.1832 32.0773 48.336 31.9395 48.4569 31.7551C48.58 31.5707 48.6405 31.3363 48.6383 31.0521Z" fill="#121212"/>
<path d="M55.2558 33.236C54.9348 33.236 54.6446 33.1774 54.3852 33.0602C54.1258 32.9409 53.9202 32.7684 53.7685 32.5427C53.619 32.3171 53.5442 32.0404 53.5442 31.7128C53.5442 31.4307 53.5992 31.1985 53.7091 31.0163C53.8191 30.834 53.9675 30.6897 54.1543 30.5834C54.3412 30.4771 54.5501 30.3968 54.7809 30.3426C55.0118 30.2883 55.247 30.2471 55.4866 30.2189C55.79 30.1842 56.0363 30.156 56.2254 30.1343C56.4144 30.1104 56.5518 30.0724 56.6376 30.0203C56.7233 29.9683 56.7662 29.8836 56.7662 29.7665V29.7437C56.7662 29.4595 56.6849 29.2392 56.5222 29.083C56.3617 28.9268 56.122 28.8487 55.8032 28.8487C55.4713 28.8487 55.2096 28.9213 55.0184 29.0667C54.8293 29.2099 54.6985 29.3694 54.6259 29.5452L53.6992 29.3369C53.8092 29.0331 53.9697 28.7879 54.1807 28.6013C54.394 28.4125 54.6391 28.2758 54.9161 28.1912C55.1931 28.1044 55.4844 28.061 55.79 28.061C55.9923 28.061 56.2067 28.0849 56.4331 28.1326C56.6618 28.1782 56.875 28.2628 57.0729 28.3865C57.273 28.5102 57.4368 28.687 57.5643 28.917C57.6918 29.1448 57.7555 29.441 57.7555 29.8055V33.1253H56.7926V32.4418H56.753C56.6892 32.5677 56.5936 32.6913 56.4661 32.8129C56.3386 32.9344 56.1748 33.0353 55.9747 33.1155C55.7747 33.1958 55.535 33.236 55.2558 33.236ZM55.4702 32.4548C55.7428 32.4548 55.9758 32.4017 56.1693 32.2954C56.365 32.189 56.5134 32.0502 56.6145 31.8788C56.7178 31.7052 56.7695 31.5197 56.7695 31.3222V30.6778C56.7343 30.7125 56.6662 30.745 56.565 30.7754C56.4661 30.8036 56.3529 30.8286 56.2254 30.8503C56.0978 30.8698 55.9736 30.8883 55.8527 30.9056C55.7318 30.9208 55.6307 30.9338 55.5493 30.9447C55.358 30.9685 55.1832 31.0087 55.025 31.0651C54.8689 31.1215 54.7435 31.2029 54.649 31.3092C54.5567 31.4133 54.5105 31.5522 54.5105 31.7258C54.5105 31.9666 54.6006 32.1489 54.7809 32.2726C54.9612 32.3941 55.1909 32.4548 55.4702 32.4548Z" fill="#121212"/>
<path d="M59.2546 33.1253V28.1261H60.2077V28.9203H60.2605C60.3528 28.6512 60.5155 28.4397 60.7485 28.2856C60.9838 28.1294 61.2498 28.0513 61.5466 28.0513C61.6082 28.0513 61.6807 28.0534 61.7643 28.0578C61.85 28.0621 61.9171 28.0675 61.9654 28.074V29.0049C61.9258 28.994 61.8555 28.9821 61.7544 28.9691C61.6532 28.9539 61.5521 28.9463 61.451 28.9463C61.2179 28.9463 61.0102 28.9951 60.8277 29.0928C60.6474 29.1882 60.5045 29.3217 60.399 29.4931C60.2934 29.6623 60.2407 29.8554 60.2407 30.0724V33.1253H59.2546Z" fill="#121212"/>
<path d="M65.0062 33.2262C64.5072 33.2262 64.0774 33.121 63.7168 32.9105C63.3584 32.6979 63.0814 32.3995 62.8857 32.0155C62.6923 31.6292 62.5955 31.1768 62.5955 30.6583C62.5955 30.1462 62.6923 29.6949 62.8857 29.3043C63.0814 28.9138 63.354 28.6089 63.7036 28.3897C64.0554 28.1706 64.4665 28.061 64.937 28.061C65.2228 28.061 65.4998 28.1077 65.768 28.201C66.0363 28.2943 66.277 28.4407 66.4902 28.6404C66.7035 28.84 66.8717 29.0993 66.9948 29.4182C67.1179 29.735 67.1795 30.1202 67.1795 30.5736V30.9186H63.1529V30.1896H66.2132C66.2132 29.9335 66.1605 29.7068 66.0549 29.5094C65.9494 29.3097 65.801 29.1524 65.6097 29.0374C65.4207 28.9224 65.1986 28.8649 64.9436 28.8649C64.6666 28.8649 64.4247 28.9322 64.2181 29.0667C64.0136 29.1991 63.8553 29.3727 63.7432 29.5875C63.6333 29.8001 63.5783 30.0312 63.5783 30.2807V30.8503C63.5783 31.1844 63.6376 31.4687 63.7564 31.703C63.8773 31.9373 64.0455 32.1164 64.2609 32.24C64.4764 32.3615 64.7281 32.4223 65.0161 32.4223C65.203 32.4223 65.3734 32.3963 65.5273 32.3442C65.6812 32.2899 65.8142 32.2097 65.9263 32.1033C66.0385 31.997 66.1242 31.8657 66.1836 31.7095L67.1168 31.8755C67.0421 32.1467 66.908 32.3843 66.7145 32.5883C66.5232 32.7901 66.2825 32.9474 65.9923 33.0602C65.7043 33.1709 65.3756 33.2262 65.0062 33.2262Z" fill="#121212"/>
</svg>
